<?xml version="1.0" ?><!DOCTYPE svg  PUBLIC '-//W3C//DTD SVG 1.1//EN'  'http://www.w3.org/Graphics/SVG/1.1/DTD/svg11.dtd'><svg height="16px" id="Layer_1" style="enable-background:new 0 0 16 16;" version="1.1" viewBox="0 0 16 16" width="16px" xml:space="preserve" xmlns="http://www.w3.org/2000/svg" xmlns:xlink="http://www.w3.org/1999/xlink"><path d="M11,1C9.383,1,8.383,1.93,8,2.344C7.617,1.93,6.617,1,5,1C2.805,1,1,2.766,1,5c0,3.477,5.261,8.756,6,9.43  C7.266,14.672,7.492,15,8,15s0.734-0.328,1-0.57c0.738-0.674,6-5.953,6-9.43C15,2.766,13.195,1,11,1z M8,12.621  C6.313,10.965,3,7.012,3,5c0-1.103,0.897-2,2-2c0.729,0,1.235,0.381,1.531,0.701L8,5.29l1.469-1.589C9.765,3.381,10.271,3,11,3  c1.103,0,2,0.897,2,2C13,7.012,9.687,10.965,8,12.621z"/></svg>